<?xml version="1.0" encoding="utf-8" standalone="no"?>
<!DOCTYPE svg PUBLIC "-//W3C//DTD SVG 1.1//EN"
  "http://www.w3.org/Graphics/SVG/1.1/DTD/svg11.dtd">
<svg xmlns:xlink="http://www.w3.org/1999/xlink" width="457.92pt" height="457.92pt" viewBox="0 0 457.92 457.92" xmlns="http://www.w3.org/2000/svg" version="1.1">
 <metadata>
  <rdf:RDF xmlns:dc="http://purl.org/dc/elements/1.1/" xmlns:cc="http://creativecommons.org/ns#" xmlns:rdf="http://www.w3.org/1999/02/22-rdf-syntax-ns#">
   <cc:Work>
    <dc:type rdf:resource="http://purl.org/dc/dcmitype/StillImage"/>
    <dc:date>2026-02-01T18:52:15.334821</dc:date>
    <dc:format>image/svg+xml</dc:format>
    <dc:creator>
     <cc:Agent>
      <dc:title>Matplotlib v3.10.8, https://matplotlib.org/</dc:title>
     </cc:Agent>
    </dc:creator>
   </cc:Work>
  </rdf:RDF>
 </metadata>
 <defs>
  <style type="text/css">*{stroke-linejoin: round; stroke-linecap: butt}</style>
 </defs>
 <g id="figure_1">
  <g id="patch_1">
   <path d="M 0 457.92 
L 457.92 457.92 
L 457.92 0 
L 0 0 
z
" style="fill: #ffffff"/>
  </g>
  <g id="axes_1">
   <g id="line2d_1">
    <path d="M 105.549224 442.704578 
L 105.549224 15.215422 
" clip-path="url(#p7e07872a1e)" style="fill: none; stroke: #2c3e50; stroke-width: 1.5; stroke-linecap: square"/>
   </g>
   <g id="line2d_2">
    <path d="M 352.370776 442.704578 
L 352.370776 262.036973 
" clip-path="url(#p7e07872a1e)" style="fill: none; stroke: #2c3e50; stroke-width: 1.5; stroke-linecap: square"/>
   </g>
   <g id="line2d_3">
    <path d="M 105.549224 442.704578 
L 352.370776 442.704578 
" clip-path="url(#p7e07872a1e)" style="fill: none; stroke: #2c3e50; stroke-width: 1.5; stroke-linecap: square"/>
   </g>
   <g id="line2d_4">
    <path d="M 105.549224 15.215422 
L 352.370776 15.215422 
" clip-path="url(#p7e07872a1e)" style="fill: none; stroke-dasharray: 1.5,2.475; stroke-dashoffset: 0; stroke: #2c3e50; stroke-width: 1.5"/>
   </g>
   <g id="line2d_5">
    <path d="M 105.549224 15.215422 
L 352.370776 262.036973 
" clip-path="url(#p7e07872a1e)" style="fill: none; stroke-dasharray: 5.55,2.4; stroke-dashoffset: 0; stroke: #2c3e50; stroke-width: 1.5"/>
   </g>
   <g id="line2d_6">
    <path d="M 105.549224 15.215422 
L 352.370776 442.704578 
" clip-path="url(#p7e07872a1e)" style="fill: none; stroke-dasharray: 5.55,2.4; stroke-dashoffset: 0; stroke: #2c3e50; stroke-width: 1.5"/>
   </g>
   <g id="patch_2">
    <path d="M 133.472998 43.139195 
C 137.139914 39.472279 140.048872 35.118716 142.033393 30.327659 
C 144.017914 25.536602 145.039404 20.401225 145.039404 15.215422 
" clip-path="url(#p7e07872a1e)" style="fill: none; stroke: #e74c3c; stroke-width: 1.5; stroke-linejoin: miter"/>
   </g>
   <g id="patch_3">
    <path d="M 125.294948 49.414554 
C 131.297595 45.948776 136.283295 40.962938 139.748906 34.960194 
C 143.214517 28.957451 145.039404 22.146756 145.039404 15.215422 
" clip-path="url(#p7e07872a1e)" style="fill: none; stroke: #e74c3c; stroke-width: 1.5; stroke-linejoin: miter"/>
   </g>
   <g id="text_1">
    <!-- 45° -->
    <g style="fill: #e74c3c" transform="translate(147.03454 41.746903) scale(0.14 -0.14)">
     <defs>
      <path id="DejaVuSans-Bold-34" d="M 2356 3675 
L 1038 1722 
L 2356 1722 
L 2356 3675 
z
M 2156 4666 
L 3494 4666 
L 3494 1722 
L 4159 1722 
L 4159 850 
L 3494 850 
L 3494 0 
L 2356 0 
L 2356 850 
L 288 850 
L 288 1881 
L 2156 4666 
z
" transform="scale(0.015625)"/>
      <path id="DejaVuSans-Bold-35" d="M 678 4666 
L 3669 4666 
L 3669 3781 
L 1638 3781 
L 1638 3059 
Q 1775 3097 1914 3117 
Q 2053 3138 2203 3138 
Q 3056 3138 3531 2711 
Q 4006 2284 4006 1522 
Q 4006 766 3489 337 
Q 2972 -91 2053 -91 
Q 1656 -91 1267 -14 
Q 878 63 494 219 
L 494 1166 
Q 875 947 1217 837 
Q 1559 728 1863 728 
Q 2300 728 2551 942 
Q 2803 1156 2803 1522 
Q 2803 1891 2551 2103 
Q 2300 2316 1863 2316 
Q 1603 2316 1309 2248 
Q 1016 2181 678 2041 
L 678 4666 
z
" transform="scale(0.015625)"/>
      <path id="DejaVuSans-Bold-b0" d="M 1600 4288 
Q 1375 4288 1219 4131 
Q 1063 3975 1063 3750 
Q 1063 3525 1217 3372 
Q 1372 3219 1600 3219 
Q 1825 3219 1981 3373 
Q 2138 3528 2138 3750 
Q 2138 3975 1980 4131 
Q 1822 4288 1600 4288 
z
M 1600 4794 
Q 1806 4794 1997 4714 
Q 2188 4634 2338 4488 
Q 2484 4338 2561 4150 
Q 2638 3963 2638 3750 
Q 2638 3541 2561 3352 
Q 2484 3163 2344 3022 
Q 2194 2872 2000 2792 
Q 1806 2713 1594 2713 
Q 1153 2713 854 3011 
Q 556 3309 556 3750 
Q 556 4191 857 4492 
Q 1159 4794 1600 4794 
z
" transform="scale(0.015625)"/>
     </defs>
     <use xlink:href="#DejaVuSans-Bold-34"/>
     <use xlink:href="#DejaVuSans-Bold-35" transform="translate(69.580078 0)"/>
     <use xlink:href="#DejaVuSans-Bold-b0" transform="translate(139.160156 0)"/>
    </g>
   </g>
   <g id="text_2">
    <!-- 60° -->
    <g style="fill: #e74c3c" transform="translate(143.607809 48.695706) scale(0.14 -0.14)">
     <defs>
      <path id="DejaVuSans-Bold-36" d="M 2316 2303 
Q 2000 2303 1842 2098 
Q 1684 1894 1684 1484 
Q 1684 1075 1842 870 
Q 2000 666 2316 666 
Q 2634 666 2792 870 
Q 2950 1075 2950 1484 
Q 2950 1894 2792 2098 
Q 2634 2303 2316 2303 
z
M 3803 4544 
L 3803 3681 
Q 3506 3822 3243 3889 
Q 2981 3956 2731 3956 
Q 2194 3956 1894 3657 
Q 1594 3359 1544 2772 
Q 1750 2925 1990 3001 
Q 2231 3078 2516 3078 
Q 3231 3078 3670 2659 
Q 4109 2241 4109 1563 
Q 4109 813 3618 361 
Q 3128 -91 2303 -91 
Q 1394 -91 895 523 
Q 397 1138 397 2266 
Q 397 3422 980 4083 
Q 1563 4744 2578 4744 
Q 2900 4744 3203 4694 
Q 3506 4644 3803 4544 
z
" transform="scale(0.015625)"/>
      <path id="DejaVuSans-Bold-30" d="M 2944 2338 
Q 2944 3213 2780 3570 
Q 2616 3928 2228 3928 
Q 1841 3928 1675 3570 
Q 1509 3213 1509 2338 
Q 1509 1453 1675 1090 
Q 1841 728 2228 728 
Q 2613 728 2778 1090 
Q 2944 1453 2944 2338 
z
M 4147 2328 
Q 4147 1169 3647 539 
Q 3147 -91 2228 -91 
Q 1306 -91 806 539 
Q 306 1169 306 2328 
Q 306 3491 806 4120 
Q 1306 4750 2228 4750 
Q 3147 4750 3647 4120 
Q 4147 3491 4147 2328 
z
" transform="scale(0.015625)"/>
     </defs>
     <use xlink:href="#DejaVuSans-Bold-36"/>
     <use xlink:href="#DejaVuSans-Bold-30" transform="translate(69.580078 0)"/>
     <use xlink:href="#DejaVuSans-Bold-b0" transform="translate(139.160156 0)"/>
    </g>
   </g>
   <g id="PathCollection_1">
    <defs>
     <path id="m5d2d4626cf" d="M 0 3.535534 
C 0.937635 3.535534 1.836992 3.163008 2.5 2.5 
C 3.163008 1.836992 3.535534 0.937635 3.535534 0 
C 3.535534 -0.937635 3.163008 -1.836992 2.5 -2.5 
C 1.836992 -3.163008 0.937635 -3.535534 0 -3.535534 
C -0.937635 -3.535534 -1.836992 -3.163008 -2.5 -2.5 
C -3.163008 -1.836992 -3.535534 -0.937635 -3.535534 0 
C -3.535534 0.937635 -3.163008 1.836992 -2.5 2.5 
C -1.836992 3.163008 -0.937635 3.535534 0 3.535534 
z
" style="stroke: #2c3e50"/>
    </defs>
    <g clip-path="url(#p7e07872a1e)">
     <use xlink:href="#m5d2d4626cf" x="105.549224" y="442.704578" style="fill: #2c3e50; stroke: #2c3e50"/>
    </g>
   </g>
   <g id="PathCollection_2">
    <g clip-path="url(#p7e07872a1e)">
     <use xlink:href="#m5d2d4626cf" x="105.549224" y="15.215422" style="fill: #2c3e50; stroke: #2c3e50"/>
    </g>
   </g>
   <g id="PathCollection_3">
    <g clip-path="url(#p7e07872a1e)">
     <use xlink:href="#m5d2d4626cf" x="352.370776" y="442.704578" style="fill: #2c3e50; stroke: #2c3e50"/>
    </g>
   </g>
   <g id="PathCollection_4">
    <g clip-path="url(#p7e07872a1e)">
     <use xlink:href="#m5d2d4626cf" x="352.370776" y="262.036973" style="fill: #2c3e50; stroke: #2c3e50"/>
    </g>
   </g>
   <g id="PathCollection_5">
    <g clip-path="url(#p7e07872a1e)">
     <use xlink:href="#m5d2d4626cf" x="352.370776" y="15.215422" style="fill: #2c3e50; stroke: #2c3e50"/>
    </g>
   </g>
   <g id="text_3">
    <g id="patch_4">
     <path d="M 360.297402 274.903386 
L 382.588027 274.903386 
L 382.588027 259.394011 
L 360.297402 259.394011 
z
" style="fill: #ffffff; opacity: 0.7"/>
    </g>
    <!-- TT -->
    <g transform="translate(361.277402 271.011824) scale(0.14 -0.14)">
     <defs>
      <path id="DejaVuSerif-Bold-54" d="M 1159 0 
L 1159 378 
L 1778 378 
L 1778 4238 
L 500 4238 
L 500 3500 
L 72 3500 
L 72 4666 
L 4697 4666 
L 4697 3500 
L 4275 3500 
L 4275 4238 
L 2988 4238 
L 2988 378 
L 3609 378 
L 3609 0 
L 1159 0 
z
" transform="scale(0.015625)"/>
     </defs>
     <use xlink:href="#DejaVuSerif-Bold-54"/>
     <use xlink:href="#DejaVuSerif-Bold-54" transform="translate(70.789062 0)"/>
    </g>
   </g>
  </g>
 </g>
 <defs>
  <clipPath id="p7e07872a1e">
   <rect x="7.2" y="7.2" width="443.52" height="443.52"/>
  </clipPath>
 </defs>
</svg>
