<?xml version="1.0" encoding="utf-8" standalone="no"?>
<!DOCTYPE svg PUBLIC "-//W3C//DTD SVG 1.1//EN"
  "http://www.w3.org/Graphics/SVG/1.1/DTD/svg11.dtd">
<svg xmlns:xlink="http://www.w3.org/1999/xlink" width="457.92pt" height="457.92pt" viewBox="0 0 457.92 457.92" xmlns="http://www.w3.org/2000/svg" version="1.1">
 <metadata>
  <rdf:RDF xmlns:dc="http://purl.org/dc/elements/1.1/" xmlns:cc="http://creativecommons.org/ns#" xmlns:rdf="http://www.w3.org/1999/02/22-rdf-syntax-ns#">
   <cc:Work>
    <dc:type rdf:resource="http://purl.org/dc/dcmitype/StillImage"/>
    <dc:date>2026-02-01T20:21:41.326482</dc:date>
    <dc:format>image/svg+xml</dc:format>
    <dc:creator>
     <cc:Agent>
      <dc:title>Matplotlib v3.10.8, https://matplotlib.org/</dc:title>
     </cc:Agent>
    </dc:creator>
   </cc:Work>
  </rdf:RDF>
 </metadata>
 <defs>
  <style type="text/css">*{stroke-linejoin: round; stroke-linecap: butt}</style>
 </defs>
 <g id="figure_1">
  <g id="patch_1">
   <path d="M 0 457.92 
L 457.92 457.92 
L 457.92 0 
L 0 0 
z
" style="fill: #ffffff"/>
  </g>
  <g id="axes_1">
   <g id="line2d_1">
    <path d="M 32.787692 314.252308 
L 118.08 143.667692 
" clip-path="url(#p13bf159d42)" style="fill: none; stroke: #2c3e50; stroke-width: 1.5; stroke-linecap: square"/>
   </g>
   <g id="line2d_2">
    <path d="M 339.84 314.252308 
L 425.132308 143.667692 
" clip-path="url(#p13bf159d42)" style="fill: none; stroke: #2c3e50; stroke-width: 1.5; stroke-linecap: square"/>
   </g>
   <g id="line2d_3">
    <path d="M 32.787692 314.252308 
L 339.84 314.252308 
" clip-path="url(#p13bf159d42)" style="fill: none; stroke: #2c3e50; stroke-width: 1.5; stroke-linecap: square"/>
   </g>
   <g id="line2d_4">
    <path d="M 118.08 143.667692 
L 425.132308 143.667692 
" clip-path="url(#p13bf159d42)" style="fill: none; stroke: #2c3e50; stroke-width: 1.5; stroke-linecap: square"/>
   </g>
   <g id="line2d_5">
    <path d="M 32.787692 314.252308 
L 339.84 314.252308 
L 425.132308 143.667692 
L 118.08 143.667692 
L 32.787692 314.252308 
" clip-path="url(#p13bf159d42)" style="fill: none; stroke: #2c3e50; stroke-width: 1.5; stroke-linecap: square"/>
   </g>
   <g id="PathCollection_1">
    <defs>
     <path id="m7c1f243425" d="M 0 3.535534 
C 0.937635 3.535534 1.836992 3.163008 2.5 2.5 
C 3.163008 1.836992 3.535534 0.937635 3.535534 0 
C 3.535534 -0.937635 3.163008 -1.836992 2.5 -2.5 
C 1.836992 -3.163008 0.937635 -3.535534 0 -3.535534 
C -0.937635 -3.535534 -1.836992 -3.163008 -2.5 -2.5 
C -3.163008 -1.836992 -3.535534 -0.937635 -3.535534 0 
C -3.535534 0.937635 -3.163008 1.836992 -2.5 2.5 
C -1.836992 3.163008 -0.937635 3.535534 0 3.535534 
z
" style="stroke: #2c3e50"/>
    </defs>
    <g clip-path="url(#p13bf159d42)">
     <use xlink:href="#m7c1f243425" x="32.787692" y="314.252308" style="fill: #2c3e50; stroke: #2c3e50"/>
    </g>
   </g>
   <g id="PathCollection_2">
    <g clip-path="url(#p13bf159d42)">
     <use xlink:href="#m7c1f243425" x="339.84" y="314.252308" style="fill: #2c3e50; stroke: #2c3e50"/>
    </g>
   </g>
   <g id="PathCollection_3">
    <g clip-path="url(#p13bf159d42)">
     <use xlink:href="#m7c1f243425" x="425.132308" y="143.667692" style="fill: #2c3e50; stroke: #2c3e50"/>
    </g>
   </g>
   <g id="PathCollection_4">
    <g clip-path="url(#p13bf159d42)">
     <use xlink:href="#m7c1f243425" x="118.08" y="143.667692" style="fill: #2c3e50; stroke: #2c3e50"/>
    </g>
   </g>
   <g id="text_1">
    <g id="patch_2">
     <path d="M 10.13547 328.83038 
L 24.052345 328.83038 
L 24.052345 313.321005 
L 10.13547 313.321005 
z
" style="fill: #ffffff; opacity: 0.7"/>
    </g>
    <!-- G -->
    <g transform="translate(11.11547 324.938817) scale(0.14 -0.14)">
     <defs>
      <path id="DejaVuSerif-Bold-47" d="M 4403 3200 
Q 4263 3819 3934 4095 
Q 3606 4372 3009 4372 
Q 2284 4372 1945 3880 
Q 1606 3388 1606 2328 
Q 1606 1278 1931 783 
Q 2256 288 2944 288 
Q 3206 288 3431 347 
Q 3656 406 3841 525 
L 3841 1806 
L 3278 1806 
L 3278 2181 
L 4959 2181 
L 4959 391 
Q 4434 147 3911 28 
Q 3388 -91 2841 -91 
Q 1641 -91 955 556 
Q 269 1203 269 2328 
Q 269 3456 955 4103 
Q 1641 4750 2841 4750 
Q 3341 4750 3825 4650 
Q 4309 4550 4800 4347 
L 4800 3200 
L 4403 3200 
z
" transform="scale(0.015625)"/>
     </defs>
     <use xlink:href="#DejaVuSerif-Bold-47"/>
    </g>
   </g>
   <g id="text_2">
    <g id="patch_3">
     <path d="M 346.319925 332.440952 
L 360.488363 332.440952 
L 360.488363 316.931577 
L 346.319925 316.931577 
z
" style="fill: #ffffff; opacity: 0.7"/>
    </g>
    <!-- U -->
    <g transform="translate(347.299925 328.54939) scale(0.14 -0.14)">
     <defs>
      <path id="DejaVuSerif-Bold-55" d="M 813 4288 
L 219 4288 
L 219 4666 
L 2619 4666 
L 2619 4288 
L 2022 4288 
L 2022 1953 
Q 2022 1081 2294 732 
Q 2566 384 3225 384 
Q 3869 384 4139 736 
Q 4409 1088 4409 1953 
L 4409 4288 
L 3816 4288 
L 3816 4666 
L 5441 4666 
L 5441 4288 
L 4844 4288 
L 4844 1888 
Q 4844 819 4381 364 
Q 3919 -91 2828 -91 
Q 1744 -91 1278 368 
Q 813 828 813 1894 
L 813 4288 
z
" transform="scale(0.015625)"/>
     </defs>
     <use xlink:href="#DejaVuSerif-Bold-55"/>
    </g>
   </g>
   <g id="text_3">
    <g id="patch_4">
     <path d="M 433.447655 144.598995 
L 448.20453 144.598995 
L 448.20453 129.08962 
L 433.447655 129.08962 
z
" style="fill: #ffffff; opacity: 0.7"/>
    </g>
    <!-- N -->
    <g transform="translate(434.427655 140.707433) scale(0.14 -0.14)">
     <defs>
      <path id="DejaVuSerif-Bold-4e" d="M 281 0 
L 281 378 
L 878 378 
L 878 4288 
L 281 4288 
L 281 4666 
L 1741 4666 
L 4556 1363 
L 4556 4288 
L 3963 4288 
L 3963 4666 
L 5594 4666 
L 5594 4288 
L 4997 4288 
L 4997 0 
L 4178 0 
L 1319 3372 
L 1319 378 
L 1913 378 
L 1913 0 
L 281 0 
z
" transform="scale(0.015625)"/>
     </defs>
     <use xlink:href="#DejaVuSerif-Bold-4e"/>
    </g>
   </g>
   <g id="text_4">
    <g id="patch_5">
     <path d="M 98.480544 140.988423 
L 110.551169 140.988423 
L 110.551169 125.479048 
L 98.480544 125.479048 
z
" style="fill: #ffffff; opacity: 0.7"/>
    </g>
    <!-- S -->
    <g transform="translate(99.460544 137.09686) scale(0.14 -0.14)">
     <defs>
      <path id="DejaVuSerif-Bold-53" d="M 494 225 
L 494 1331 
L 891 1331 
Q 981 806 1318 547 
Q 1656 288 2253 288 
Q 2738 288 2991 472 
Q 3244 656 3244 1013 
Q 3244 1294 3072 1450 
Q 2900 1606 2363 1741 
L 1663 1913 
Q 978 2088 700 2398 
Q 422 2709 422 3284 
Q 422 3978 883 4364 
Q 1344 4750 2175 4750 
Q 2584 4750 3026 4681 
Q 3469 4613 3944 4475 
L 3944 3444 
L 3547 3444 
Q 3456 3925 3150 4148 
Q 2844 4372 2278 4372 
Q 1816 4372 1580 4211 
Q 1344 4050 1344 3731 
Q 1344 3441 1506 3289 
Q 1669 3138 2303 2975 
L 3003 2803 
Q 3653 2641 3945 2297 
Q 4238 1953 4238 1350 
Q 4238 644 3750 276 
Q 3263 -91 2316 -91 
Q 1859 -91 1409 -12 
Q 959 66 494 225 
z
" transform="scale(0.015625)"/>
     </defs>
     <use xlink:href="#DejaVuSerif-Bold-53"/>
    </g>
   </g>
  </g>
 </g>
 <defs>
  <clipPath id="p13bf159d42">
   <rect x="7.2" y="7.2" width="443.52" height="443.52"/>
  </clipPath>
 </defs>
</svg>
