<?xml version="1.0" encoding="utf-8" standalone="no"?>
<!DOCTYPE svg PUBLIC "-//W3C//DTD SVG 1.1//EN"
  "http://www.w3.org/Graphics/SVG/1.1/DTD/svg11.dtd">
<svg xmlns:xlink="http://www.w3.org/1999/xlink" width="457.92pt" height="457.92pt" viewBox="0 0 457.92 457.92" xmlns="http://www.w3.org/2000/svg" version="1.1">
 <metadata>
  <rdf:RDF xmlns:dc="http://purl.org/dc/elements/1.1/" xmlns:cc="http://creativecommons.org/ns#" xmlns:rdf="http://www.w3.org/1999/02/22-rdf-syntax-ns#">
   <cc:Work>
    <dc:type rdf:resource="http://purl.org/dc/dcmitype/StillImage"/>
    <dc:date>2026-02-01T20:45:19.136012</dc:date>
    <dc:format>image/svg+xml</dc:format>
    <dc:creator>
     <cc:Agent>
      <dc:title>Matplotlib v3.10.8, https://matplotlib.org/</dc:title>
     </cc:Agent>
    </dc:creator>
   </cc:Work>
  </rdf:RDF>
 </metadata>
 <defs>
  <style type="text/css">*{stroke-linejoin: round; stroke-linecap: butt}</style>
 </defs>
 <g id="figure_1">
  <g id="patch_1">
   <path d="M 0 457.92 
L 457.92 457.92 
L 457.92 0 
L 0 0 
z
" style="fill: #ffffff"/>
  </g>
  <g id="axes_1">
   <g id="line2d_1">
    <path d="M 73.728 362.016 
L 384.192 362.016 
L 339.84 95.904 
L 73.728 140.256 
L 73.728 362.016 
" clip-path="url(#p9289d05437)" style="fill: none; stroke: #2c3e50; stroke-width: 1.5; stroke-linecap: square"/>
   </g>
   <g id="patch_2">
    <path d="M 106.440419 362.016 
C 106.440419 353.343454 102.991589 345.017243 96.859173 338.884827 
C 90.726757 332.752411 82.400546 329.303581 73.728 329.303581 
" clip-path="url(#p9289d05437)" style="fill: none; stroke: #e74c3c; stroke-width: 1.5; stroke-linejoin: miter"/>
   </g>
   <g id="patch_3">
    <path d="M 378.814111 329.748669 
C 371.177796 331.021388 364.235778 334.964481 359.231771 340.871514 
C 354.227763 346.778546 351.479581 354.274351 351.479581 362.016 
" clip-path="url(#p9289d05437)" style="fill: none; stroke: #e74c3c; stroke-width: 1.5; stroke-linejoin: miter"/>
   </g>
   <g id="patch_4">
    <path d="M 307.572669 101.281889 
C 308.998427 109.836435 313.769152 117.482375 320.826293 122.52319 
C 327.883433 127.564005 336.663342 129.597089 345.217889 128.171331 
" clip-path="url(#p9289d05437)" style="fill: none; stroke: #e74c3c; stroke-width: 1.5; stroke-linejoin: miter"/>
   </g>
   <g id="patch_5">
    <path d="M 73.728 172.968419 
C 78.478737 172.968419 83.172944 171.933514 87.483273 169.935872 
C 91.793601 167.938231 95.617472 165.025394 98.688229 161.400486 
C 101.758986 157.775579 104.003551 153.524868 105.265399 148.944776 
C 106.527246 144.364685 106.776348 139.564209 105.995331 134.878111 
" clip-path="url(#p9289d05437)" style="fill: none; stroke: #e74c3c; stroke-width: 1.5; stroke-linejoin: miter"/>
   </g>
   <g id="text_1">
    <!-- 90° -->
    <g style="fill: #e74c3c" transform="translate(95.183822 331.182365) scale(0.14 -0.14)">
     <defs>
      <path id="DejaVuSans-Bold-39" d="M 641 103 
L 641 966 
Q 928 831 1190 764 
Q 1453 697 1709 697 
Q 2247 697 2547 995 
Q 2847 1294 2900 1881 
Q 2688 1725 2447 1647 
Q 2206 1569 1925 1569 
Q 1209 1569 770 1986 
Q 331 2403 331 3084 
Q 331 3838 820 4291 
Q 1309 4744 2131 4744 
Q 3044 4744 3544 4128 
Q 4044 3513 4044 2388 
Q 4044 1231 3459 570 
Q 2875 -91 1856 -91 
Q 1528 -91 1228 -42 
Q 928 6 641 103 
z
M 2125 2350 
Q 2441 2350 2600 2554 
Q 2759 2759 2759 3169 
Q 2759 3575 2600 3781 
Q 2441 3988 2125 3988 
Q 1809 3988 1650 3781 
Q 1491 3575 1491 3169 
Q 1491 2759 1650 2554 
Q 1809 2350 2125 2350 
z
" transform="scale(0.015625)"/>
      <path id="DejaVuSans-Bold-30" d="M 2944 2338 
Q 2944 3213 2780 3570 
Q 2616 3928 2228 3928 
Q 1841 3928 1675 3570 
Q 1509 3213 1509 2338 
Q 1509 1453 1675 1090 
Q 1841 728 2228 728 
Q 2613 728 2778 1090 
Q 2944 1453 2944 2338 
z
M 4147 2328 
Q 4147 1169 3647 539 
Q 3147 -91 2228 -91 
Q 1306 -91 806 539 
Q 306 1169 306 2328 
Q 306 3491 806 4120 
Q 1306 4750 2228 4750 
Q 3147 4750 3647 4120 
Q 4147 3491 4147 2328 
z
" transform="scale(0.015625)"/>
      <path id="DejaVuSans-Bold-b0" d="M 1600 4288 
Q 1375 4288 1219 4131 
Q 1063 3975 1063 3750 
Q 1063 3525 1217 3372 
Q 1372 3219 1600 3219 
Q 1825 3219 1981 3373 
Q 2138 3528 2138 3750 
Q 2138 3975 1980 4131 
Q 1822 4288 1600 4288 
z
M 1600 4794 
Q 1806 4794 1997 4714 
Q 2188 4634 2338 4488 
Q 2484 4338 2561 4150 
Q 2638 3963 2638 3750 
Q 2638 3541 2561 3352 
Q 2484 3163 2344 3022 
Q 2194 2872 2000 2792 
Q 1806 2713 1594 2713 
Q 1153 2713 854 3011 
Q 556 3309 556 3750 
Q 556 4191 857 4492 
Q 1159 4794 1600 4794 
z
" transform="scale(0.015625)"/>
     </defs>
     <use xlink:href="#DejaVuSans-Bold-39"/>
     <use xlink:href="#DejaVuSans-Bold-30" transform="translate(69.580078 0)"/>
     <use xlink:href="#DejaVuSans-Bold-b0" transform="translate(139.160156 0)"/>
    </g>
   </g>
   <g id="text_2">
    <!-- 60° -->
    <g style="fill: #e74c3c" transform="translate(333.510719 334.162395) scale(0.14 -0.14)">
     <defs>
      <path id="DejaVuSans-Bold-36" d="M 2316 2303 
Q 2000 2303 1842 2098 
Q 1684 1894 1684 1484 
Q 1684 1075 1842 870 
Q 2000 666 2316 666 
Q 2634 666 2792 870 
Q 2950 1075 2950 1484 
Q 2950 1894 2792 2098 
Q 2634 2303 2316 2303 
z
M 3803 4544 
L 3803 3681 
Q 3506 3822 3243 3889 
Q 2981 3956 2731 3956 
Q 2194 3956 1894 3657 
Q 1594 3359 1544 2772 
Q 1750 2925 1990 3001 
Q 2231 3078 2516 3078 
Q 3231 3078 3670 2659 
Q 4109 2241 4109 1563 
Q 4109 813 3618 361 
Q 3128 -91 2303 -91 
Q 1394 -91 895 523 
Q 397 1138 397 2266 
Q 397 3422 980 4083 
Q 1563 4744 2578 4744 
Q 2900 4744 3203 4694 
Q 3506 4644 3803 4544 
z
" transform="scale(0.015625)"/>
     </defs>
     <use xlink:href="#DejaVuSans-Bold-36"/>
     <use xlink:href="#DejaVuSans-Bold-30" transform="translate(69.580078 0)"/>
     <use xlink:href="#DejaVuSans-Bold-b0" transform="translate(139.160156 0)"/>
    </g>
   </g>
   <g id="text_3">
    <!-- 70° -->
    <g style="fill: #e74c3c" transform="translate(298.078502 139.69591) scale(0.14 -0.14)">
     <defs>
      <path id="DejaVuSans-Bold-37" d="M 428 4666 
L 3944 4666 
L 3944 3988 
L 2125 0 
L 953 0 
L 2675 3781 
L 428 3781 
L 428 4666 
z
" transform="scale(0.015625)"/>
     </defs>
     <use xlink:href="#DejaVuSans-Bold-37"/>
     <use xlink:href="#DejaVuSans-Bold-30" transform="translate(69.580078 0)"/>
     <use xlink:href="#DejaVuSans-Bold-b0" transform="translate(139.160156 0)"/>
    </g>
   </g>
   <g id="text_4">
    <!-- x -->
    <g style="fill: #e74c3c" transform="translate(106.653344 175.835855) scale(0.14 -0.14)">
     <defs>
      <path id="DejaVuSans-Bold-78" d="M 1422 1791 
L 159 3500 
L 1344 3500 
L 2059 2463 
L 2784 3500 
L 3969 3500 
L 2706 1797 
L 4031 0 
L 2847 0 
L 2059 1106 
L 1281 0 
L 97 0 
L 1422 1791 
z
" transform="scale(0.015625)"/>
     </defs>
     <use xlink:href="#DejaVuSans-Bold-78"/>
    </g>
   </g>
   <g id="PathCollection_1">
    <defs>
     <path id="m156c802644" d="M 0 3.535534 
C 0.937635 3.535534 1.836992 3.163008 2.5 2.5 
C 3.163008 1.836992 3.535534 0.937635 3.535534 0 
C 3.535534 -0.937635 3.163008 -1.836992 2.5 -2.5 
C 1.836992 -3.163008 0.937635 -3.535534 0 -3.535534 
C -0.937635 -3.535534 -1.836992 -3.163008 -2.5 -2.5 
C -3.163008 -1.836992 -3.535534 -0.937635 -3.535534 0 
C -3.535534 0.937635 -3.163008 1.836992 -2.5 2.5 
C -1.836992 3.163008 -0.937635 3.535534 0 3.535534 
z
" style="stroke: #2c3e50"/>
    </defs>
    <g clip-path="url(#p9289d05437)">
     <use xlink:href="#m156c802644" x="73.728" y="362.016" style="fill: #2c3e50; stroke: #2c3e50"/>
    </g>
   </g>
   <g id="PathCollection_2">
    <g clip-path="url(#p9289d05437)">
     <use xlink:href="#m156c802644" x="384.192" y="362.016" style="fill: #2c3e50; stroke: #2c3e50"/>
    </g>
   </g>
   <g id="PathCollection_3">
    <g clip-path="url(#p9289d05437)">
     <use xlink:href="#m156c802644" x="339.84" y="95.904" style="fill: #2c3e50; stroke: #2c3e50"/>
    </g>
   </g>
   <g id="PathCollection_4">
    <g clip-path="url(#p9289d05437)">
     <use xlink:href="#m156c802644" x="73.728" y="140.256" style="fill: #2c3e50; stroke: #2c3e50"/>
    </g>
   </g>
   <g id="text_5">
    <g id="patch_6">
     <path d="M 54.830332 380.335854 
L 67.653457 380.335854 
L 67.653457 364.826479 
L 54.830332 364.826479 
z
" style="fill: #ffffff; opacity: 0.7"/>
    </g>
    <!-- A -->
    <g transform="translate(55.810332 376.444292) scale(0.14 -0.14)">
     <defs>
      <path id="DejaVuSerif-Bold-41" d="M -50 0 
L -50 378 
L 331 378 
L 2088 4666 
L 2834 4666 
L 4594 378 
L 5038 378 
L 5038 0 
L 2853 0 
L 2853 378 
L 3309 378 
L 2925 1331 
L 1172 1331 
L 781 378 
L 1338 378 
L 1338 0 
L -50 0 
z
M 1325 1709 
L 2772 1709 
L 2053 3494 
L 1325 1709 
z
" transform="scale(0.015625)"/>
     </defs>
     <use xlink:href="#DejaVuSerif-Bold-41"/>
    </g>
   </g>
   <g id="text_6">
    <g id="patch_7">
     <path d="M 390.485635 379.443155 
L 404.277823 379.443155 
L 404.277823 363.93378 
L 390.485635 363.93378 
z
" style="fill: #ffffff; opacity: 0.7"/>
    </g>
    <!-- B -->
    <g transform="translate(391.465635 375.551593) scale(0.14 -0.14)">
     <defs>
      <path id="DejaVuSerif-Bold-42" d="M 300 0 
L 300 378 
L 897 378 
L 897 4288 
L 300 4288 
L 300 4666 
L 3066 4666 
Q 3919 4666 4347 4378 
Q 4775 4091 4775 3513 
Q 4775 3097 4479 2853 
Q 4184 2609 3603 2547 
Q 4306 2481 4681 2172 
Q 5056 1863 5056 1350 
Q 5056 656 4532 328 
Q 4009 0 2894 0 
L 300 0 
z
M 2100 2719 
L 2509 2719 
Q 3047 2719 3306 2914 
Q 3566 3109 3566 3513 
Q 3566 3919 3314 4103 
Q 3063 4288 2509 4288 
L 2100 4288 
L 2100 2719 
z
M 2100 378 
L 2547 378 
Q 3144 378 3431 615 
Q 3719 853 3719 1350 
Q 3719 1850 3428 2097 
Q 3138 2344 2547 2344 
L 2100 2344 
L 2100 378 
z
" transform="scale(0.015625)"/>
     </defs>
     <use xlink:href="#DejaVuSerif-Bold-42"/>
    </g>
   </g>
   <g id="text_7">
    <g id="patch_8">
     <path d="M 343.853604 91.172582 
L 356.956729 91.172582 
L 356.956729 75.663207 
L 343.853604 75.663207 
z
" style="fill: #ffffff; opacity: 0.7"/>
    </g>
    <!-- C -->
    <g transform="translate(344.833604 87.281019) scale(0.14 -0.14)">
     <defs>
      <path id="DejaVuSerif-Bold-43" d="M 4769 1331 
Q 4584 609 4106 259 
Q 3628 -91 2822 -91 
Q 1641 -91 955 561 
Q 269 1213 269 2328 
Q 269 3447 955 4098 
Q 1641 4750 2822 4750 
Q 3238 4750 3688 4650 
Q 4138 4550 4641 4347 
L 4641 3200 
L 4244 3200 
Q 4122 3788 3800 4080 
Q 3478 4372 2950 4372 
Q 2269 4372 1937 3870 
Q 1606 3369 1606 2328 
Q 1606 1288 1937 788 
Q 2269 288 2956 288 
Q 3422 288 3717 547 
Q 4013 806 4147 1331 
L 4769 1331 
z
" transform="scale(0.015625)"/>
     </defs>
     <use xlink:href="#DejaVuSerif-Bold-43"/>
    </g>
   </g>
   <g id="text_8">
    <g id="patch_9">
     <path d="M 53.22974 138.70057 
L 67.330365 138.70057 
L 67.330365 123.191195 
L 53.22974 123.191195 
z
" style="fill: #ffffff; opacity: 0.7"/>
    </g>
    <!-- D -->
    <g transform="translate(54.20974 134.809007) scale(0.14 -0.14)">
     <defs>
      <path id="DejaVuSerif-Bold-44" d="M 2100 378 
L 2534 378 
Q 3266 378 3605 847 
Q 3944 1316 3944 2338 
Q 3944 3353 3606 3820 
Q 3269 4288 2534 4288 
L 2100 4288 
L 2100 378 
z
M 300 0 
L 300 378 
L 897 378 
L 897 4288 
L 300 4288 
L 300 4666 
L 2694 4666 
Q 3950 4666 4615 4066 
Q 5281 3466 5281 2338 
Q 5281 1203 4614 601 
Q 3947 0 2694 0 
L 300 0 
z
" transform="scale(0.015625)"/>
     </defs>
     <use xlink:href="#DejaVuSerif-Bold-44"/>
    </g>
   </g>
  </g>
 </g>
 <defs>
  <clipPath id="p9289d05437">
   <rect x="7.2" y="7.2" width="443.52" height="443.52"/>
  </clipPath>
 </defs>
</svg>
